<svg xmlns:xlink="http://www.w3.org/1999/xlink" viewBox="0 0 1024 1024" style="shape-rendering:geometricPrecision; text-rendering:geometricPrecision; image-rendering:optimizeQuality; fill-rule:evenodd; clip-rule:evenodd" version="1.1" height="1024px" width="1024px" xml:space="preserve" xmlns="http://www.w3.org/2000/svg">
 <defs>
  <style type="text/css">
   
    .fil0 {fill:none}
    .fil1 {fill:#060605}
    .fil2 {fill:#1A3A5A}
    .fil6 {fill:#8BD1CE}
    .fil5 {fill:#D4DCE2}
    .fil3 {fill:#F5C3A4}
    .fil4 {fill:#F6F9F7}
   
  </style>
 </defs>
 <g id="图层_x0020_1">
  <metadata id="CorelCorpID_0Corel-Layer"></metadata>
  <rect height="1024" width="1024" class="fil0"></rect>
  <g id="_1916685949600">
   <path d="M528 878c11,-4 33,-2 46,-1 4,4 2,4 9,7 10,5 25,8 29,21l-84 0 0 -27zm-61 -1l25 0 0 28 -83 0c2,-9 14,-16 25,-19 18,-6 1,-10 33,-9zm-32 -250c34,0 65,9 76,-32 1,0 1,1 1,1 1,0 1,1 2,1 0,1 0,1 1,1 3,5 6,21 23,27 15,6 35,0 50,1 2,20 -5,230 -8,237 -2,2 1,1 -3,1l-15 1c-39,0 -36,4 -36,-13l-3 -86c-1,-20 -2,-41 -2,-60 -1,-16 0,-42 -3,-57 -2,-1 -1,-1 -4,-1l-10 0 -10 217 -52 -1c-3,-15 -2,-39 -3,-55 -3,-55 -4,-128 -4,-182zm-13 0c-30,0 -28,-30 -29,-57 0,-27 0,-57 4,-84l25 9 0 132zm205 -141c5,9 4,67 3,82 0,30 2,57 -28,59l0 -134 25 -7zm-115 11c-2,-5 -3,-19 -5,-25 -7,-27 -8,-27 -3,-54 2,-12 0,-16 12,-18 3,16 10,33 7,51 -2,8 -8,42 -11,46zm20 -11c-4,-4 -5,6 -3,-8l13 -53c3,-13 8,-52 12,-60 7,2 16,25 17,35 -6,6 -12,7 -16,14 2,8 6,10 10,16 -2,13 -27,41 -33,56zm-78 -86c1,-13 6,-34 17,-36 1,4 26,115 26,119l-37 -54c4,-8 10,-9 9,-21 -4,-3 -10,-6 -15,-8zm52 -7c-5,-8 2,-13 3,-13 13,-4 15,18 -3,13zm63 22c25,-7 12,-20 7,-39 30,9 57,68 61,91 -1,1 -28,14 -36,11 -4,-29 6,-45 -11,-44 -5,35 4,148 -1,180 -25,2 -45,6 -57,-8 -9,-11 -16,-31 -16,-50 7,-3 13,2 12,-10l-7 -3c-1,0 -1,0 -2,0 0,0 -1,0 -1,-1 0,-1 -1,0 -1,-1 -2,-21 4,-24 13,-36l41 -59c17,-28 4,-13 -2,-31zm-181 55c1,-18 29,-86 60,-95 -5,24 -17,23 8,38l-9 14c3,12 22,36 28,45 31,46 40,45 29,108 -8,44 -35,36 -69,34 -3,-60 3,-119 -1,-178 -15,0 -8,15 -11,44l-35 -10zm132 -95c3,-8 1,-3 9,-11 5,-5 4,-6 12,-6 0,9 -8,59 -11,64l-5 -25c4,-2 4,0 9,-3 -1,-9 -9,-16 -14,-19zm-19 -1c-2,4 -9,12 -14,14 -1,-9 -6,-23 -3,-31l17 17zm-7 -31l32 0c2,13 -7,17 -15,22 -9,-4 -18,-11 -17,-22zm-76 -101c37,-49 2,-63 93,-67 86,-4 69,32 91,67 9,-2 17,-4 25,2 14,10 12,45 -31,38 -34,76 -153,57 -171,2 -10,0 -16,3 -26,-1 -15,-8 -19,-29 -5,-39 10,-6 14,-3 24,-2zm58 -107c7,-8 8,-14 17,-21 24,-22 62,-9 85,3 14,7 11,10 19,19 2,2 3,3 5,5 10,9 -3,3 11,17 8,9 1,55 -3,61 -14,-7 -12,-30 -26,-41 -3,-2 -9,-6 -12,-7l-24 -9c-4,-1 -11,-1 -16,-1 4,-9 5,-9 -15,-6 4,-3 6,-4 7,-9 -17,-8 -39,7 -41,21 -24,-3 -42,2 -50,18 -13,23 -2,22 -24,40 -4,-29 -14,-47 3,-72 20,-29 62,-18 64,-18zm148 95c1,-23 15,-51 4,-77 -7,-14 -16,-15 -20,-23 -9,-15 -4,-12 -21,-22 -15,-10 -43,-22 -66,-20 -23,2 -47,18 -53,32 -32,-4 -56,11 -69,28 -17,23 -7,54 -2,82 -34,10 -40,66 23,69 5,13 14,19 24,26 13,10 22,11 35,17 -2,4 -4,4 -10,7 -4,2 -7,3 -11,5 -45,22 -58,37 -75,86 -15,43 -14,36 1,43 -3,33 -5,64 -3,98 1,39 5,53 41,59l7 234c-36,8 -42,44 -32,60 17,3 55,1 75,1 42,0 34,0 35,-40 0,-47 3,-97 5,-144l3 181c9,4 87,5 102,3 16,-2 11,-30 6,-39 -11,-17 -29,-19 -29,-23l8 -231 10 -4c46,-12 26,-99 28,-155 13,-8 19,2 1,-44 -31,-81 -69,-76 -95,-93 -5,-4 -2,-1 -4,-4 6,-3 13,-5 19,-8 28,-13 28,-19 43,-37 53,0 55,-57 20,-67z" class="fil1"></path>
   <path d="M435 627c0,54 1,127 4,182 1,16 0,40 3,55l52 1 10 -217 10 0c3,0 2,0 4,1 3,15 2,41 3,57 0,19 1,40 2,60l3 86c0,17 -3,13 36,13l15 -1c4,0 1,1 3,-1 3,-7 10,-217 8,-237 -15,-1 -35,5 -50,-1 -17,-6 -20,-22 -23,-27 -1,0 -1,0 -1,-1 -1,0 -1,-1 -2,-1 0,0 0,-1 -1,-1 -11,41 -42,32 -76,32z" class="fil2"></path>
   <path d="M499 278c7,1 7,5 13,4 4,-1 5,-4 10,-5 5,12 -22,19 -23,1zm48 -36c19,-11 29,24 11,31 -19,7 -33,-20 -11,-31zm-85 0c22,-9 31,22 16,31 -21,13 -35,-23 -16,-31zm-44 0c-10,-1 -14,-4 -24,2 -14,10 -10,31 5,39 10,4 16,1 26,1 18,55 137,74 171,-2 43,7 45,-28 31,-38 -8,-6 -16,-4 -25,-2 -22,-35 -5,-71 -91,-67 -91,4 -56,18 -93,67z" class="fil3"></path>
   <path d="M388 470l35 10c3,-29 -4,-44 11,-44 4,59 -2,118 1,178 34,2 61,10 69,-34 11,-63 2,-62 -29,-108 -6,-9 -25,-33 -28,-45l9 -14c-25,-15 -13,-14 -8,-38 -31,9 -59,77 -60,95z" class="fil2"></path>
   <path d="M569 415c6,18 19,3 2,31l-41 59c-9,12 -15,15 -13,36 0,1 1,0 1,1 0,1 1,1 1,1 1,0 1,0 2,0l7 3c1,12 -5,7 -12,10 0,19 7,39 16,50 12,14 32,10 57,8 5,-32 -4,-145 1,-180 17,-1 7,15 11,44 8,3 35,-10 36,-11 -4,-23 -31,-82 -61,-91 5,19 18,32 -7,39z" class="fil2"></path>
   <path d="M476 135c-2,0 -44,-11 -64,18 -17,25 -7,43 -3,72 22,-18 11,-17 24,-40 8,-16 26,-21 50,-18 2,-14 24,-29 41,-21 -1,5 -3,6 -7,9 20,-3 19,-3 15,6 5,0 12,0 16,1l24 9c3,1 9,5 12,7 14,11 12,34 26,41 4,-6 11,-52 3,-61 -14,-14 -1,-8 -11,-17 -2,-2 -3,-3 -5,-5 -8,-9 -5,-12 -19,-19 -23,-12 -61,-25 -85,-3 -9,7 -10,13 -17,21z" class="fil2"></path>
   <path d="M602 493l0 134c30,-2 28,-29 28,-59 1,-15 2,-73 -3,-82l-25 7z" class="fil3"></path>
   <path d="M422 627l0 -132 -25 -9c-4,27 -4,57 -4,84 1,27 -1,57 29,57z" class="fil3"></path>
   <path d="M528 905l84 0c-4,-13 -19,-16 -29,-21 -7,-3 -5,-3 -9,-7 -13,-1 -35,-3 -46,1l0 27z" class="fil4"></path>
   <path d="M532 486c6,-15 31,-43 33,-56 -4,-6 -8,-8 -10,-16 4,-7 10,-8 16,-14 -1,-10 -10,-33 -17,-35 -4,8 -9,47 -12,60l-13 53c-2,14 -1,4 3,8z" class="fil2"></path>
   <path d="M467 877c-32,-1 -15,3 -33,9 -11,3 -23,10 -25,19l83 0 0 -28 -25 0z" class="fil4"></path>
   <path d="M454 400c5,2 11,5 15,8 1,12 -5,13 -9,21l37 54c0,-4 -25,-115 -26,-119 -11,2 -16,23 -17,36z" class="fil2"></path>
   <path d="M512 497c3,-4 9,-38 11,-46 3,-18 -4,-35 -7,-51 -12,2 -10,6 -12,18 -5,27 -4,27 3,54 2,6 3,20 5,25z" class="fil5"></path>
   <path d="M462 242c-19,8 -5,44 16,31 15,-9 6,-40 -16,-31z" class="fil1"></path>
   <path d="M547 242c-22,11 -8,38 11,31 18,-7 8,-42 -11,-31z" class="fil1"></path>
   <path d="M520 375c5,3 13,10 14,19 -5,3 -5,1 -9,3l5 25c3,-5 11,-55 11,-64 -8,0 -7,1 -12,6 -8,8 -6,3 -9,11z" class="fil4"></path>
   <path d="M511 365c8,-5 17,-9 15,-22l-32 0c-1,11 8,18 17,22z" class="fil3"></path>
   <path d="M487 388c5,-2 12,-10 14,-14l-17 -17c-3,8 2,22 3,31z" class="fil4"></path>
   <path d="M506 393c18,5 16,-17 3,-13 -1,0 -8,5 -3,13z" class="fil6"></path>
   <path d="M499 278c1,18 28,11 23,-1 -5,1 -6,4 -10,5 -6,1 -6,-3 -13,-4z" class="fil1"></path>
  </g>
 </g>
</svg>
