<?xml version="1.0" standalone="no"?><!DOCTYPE svg PUBLIC "-//W3C//DTD SVG 1.1//EN" "http://www.w3.org/Graphics/SVG/1.1/DTD/svg11.dtd"><svg t="1776909779144" class="icon" viewBox="0 0 1024 1024" version="1.1" xmlns="http://www.w3.org/2000/svg" p-id="6460" xmlns:xlink="http://www.w3.org/1999/xlink" width="200" height="200"><path d="M351.51171875 789.47070313c0-0.26367188 0.08789063-0.52734375 0.17578125-0.79101563 0-0.61523438 0-1.23046875 0.08789063-1.84570313 1.40625-13.44726563 3.1640625-26.45507813 5.27343749-38.93554687-4.04296875-0.17578125-8.26171875-0.703125-12.48046874-1.93359375-2.4609375-0.703125-4.74609375-1.58203125-6.94335938-2.72460938l-38.84765625 60.99609375c7.99804688-1.23046875 17.05078125-2.109375 26.54296875-2.19726562h7.29492188c0.61523438 0 1.31835938 0 1.93359374 0.08789062 0.52734375 0 1.0546875 0.08789063 1.58203125 0.08789063 0.52734375 0 0.96679688 0.08789063 1.49414063 0.08789062 0.61523438 0 1.23046875 0.08789063 1.84570312 0.08789063 0.26367188 0 0.52734375 0 0.79101563 0.08789062 3.515625 0.26367188 7.03125 0.703125 10.37109375 1.14257813 0.08789063-7.91015625 0.79101563-13.359375 0.87890625-14.15039063zM681.18945313 745.96484375c-4.21875 1.23046875-8.52539063 1.7578125-12.48046876 1.93359375 2.109375 12.56835938 3.8671875 25.48828125 5.2734375 38.93554688 0.08789063 0.96679688 0.08789063 1.84570313 0 2.72460937 0.17578125 1.0546875 0.79101563 6.41601563 0.96679688 14.15039063 0.79101563-0.08789063 1.58203125-0.26367188 2.37304687-0.3515625 0.26367188 0 0.52734375-0.08789063 0.79101563-0.08789063 0.703125-0.08789063 1.49414063-0.17578125 2.19726562-0.26367187 0.3515625 0 0.703125-0.08789063 1.0546875-0.08789063 0.703125-0.08789063 1.31835938-0.17578125 2.02148438-0.17578125 0.43945313 0 0.87890625-0.08789063 1.31835937-0.08789062 0.61523438-0.08789063 1.31835938-0.08789063 1.93359375-0.17578125 0.52734375 0 1.0546875-0.08789063 1.58203125-0.08789063 0.61523438 0 1.14257813-0.08789063 1.7578125-0.08789062s1.23046875-0.08789063 1.7578125-0.08789063c0.52734375 0 1.0546875 0 1.58203125-0.08789062h7.11914063c9.4921875 0.17578125 18.54492188 1.0546875 26.54296875 2.19726562l-38.84765625-60.99609375c-2.19726563 0.96679688-4.48242188 1.93359375-6.94335938 2.63671875z" fill="#ED1C24" p-id="6461"></path><path d="M742.09765625 309.06054687c-43.9453125-44.91210938-142.29492188-62.578125-142.29492188-62.57812499s-122.87109375-17.05078125-159.96093749 20.21484375c-31.02539063 31.11328125 18.72070313 33.75 18.72070312 33.75-41.39648438 22.8515625-79.453125-8.17382813-58.18359375-26.10351563 25.04882813-21.09375 2.63671875-26.3671875 2.63671875-26.3671875-38.23242188-6.15234375-81.82617188 34.8046875-108.28125 65.12695313V471.5703125c0 67.32421875 54.84375 122.16796875 122.16796875 122.16796875h203.02734375c67.32421875 0 122.16796875-54.84375 122.16796875-122.16796875V309.06054687zM390.88671875 451.53125c-14.58984375 0-28.38867188-5.71289063-38.671875-15.99609375-19.24804688-19.24804688-21.09375-49.30664063-5.71289063-70.6640625l76.37695313 76.37695313c-9.22851563 6.6796875-20.30273438 10.28320313-31.9921875 10.28320312zM673.45507813 435.53515625c-10.37109375 10.37109375-24.08203125 15.99609375-38.67187501 15.99609375-11.6015625 0-22.76367188-3.60351563-31.9921875-10.28320313l76.37695313-76.37695312c6.6796875 9.22851563 10.28320313 20.30273438 10.28320313 31.9921875 0 14.58984375-5.71289063 28.30078125-15.99609376 38.671875z" fill="#FFECD9" p-id="6462"></path><path d="M768.46484375 471.48242187v-196.87499999c0-39.55078125-15.46875-76.81640625-43.59375-104.94140626s-65.390625-43.59375-104.94140625-43.59375h-203.02734375c-39.55078125 0-76.81640625 15.46875-104.94140625 43.59375s-43.59375 65.390625-43.59375 104.94140625v196.87500001c0 39.55078125 15.46875 76.81640625 43.59375 104.94140624 19.3359375 19.3359375 43.06640625 32.6953125 68.81835938 39.19921875-7.11914063 5.80078125-15.20507813 12.65625-23.02734376 20.12695313-34.1015625 32.34375-47.63671875 58.7109375-41.57226562 80.77148437 0.703125 2.4609375 1.58203125 4.83398438 2.54882813 7.11914063L259.40234375 816.98046875c-2.98828125 4.65820313-2.72460938 10.72265625 0.703125 15.1171875 3.42773438 4.39453125 9.22851563 6.15234375 14.50195313 4.48242188 0.61523438-0.17578125 41.92382813-13.359375 77.34374999-5.88867188 3.33984375 24.34570313 13.62304688 52.11914063 41.8359375 61.96289063 9.31640625 3.25195313 18.28125 4.83398438 26.89453125 4.83398437 9.75585938 0 19.07226563-2.109375 27.7734375-6.328125 12.56835938-6.06445313 21.53320313-15.64453125 27.59765625-24.2578125h73.30078125c6.06445313 8.61328125 15.02929688 18.19335938 27.59765625 24.2578125 8.70117188 4.21875 17.9296875 6.328125 27.7734375 6.328125 8.61328125 0 17.578125-1.58203125 26.89453125-4.83398437 28.21289063-9.84375 38.49609375-37.6171875 41.8359375-61.875 35.41992188-7.64648438 76.9921875 5.625 77.51953125 5.80078125 5.2734375 1.7578125 11.07421875 0 14.50195313-4.39453125s3.69140625-10.45898438 0.703125-15.20507813l-59.4140625-93.33984375c1.0546875-2.19726563 1.84570313-4.5703125 2.54882812-7.11914063 6.15234375-22.06054688-7.47070313-48.515625-41.57226562-80.77148437-7.03125-6.6796875-14.15039063-12.83203125-20.7421875-18.19335938 29.1796875-5.44921875 56.07421875-19.51171875 77.60742187-41.13281249 28.38867188-28.125 43.85742188-65.390625 43.85742188-104.94140626zM339.3828125 802.390625c-0.61523438-0.08789063-1.23046875-0.08789063-1.84570313-0.08789063-0.43945313 0-0.96679688-0.08789063-1.49414062-0.08789062-0.52734375 0-1.0546875-0.08789063-1.58203125-0.08789063-0.61523438 0-1.31835938-0.08789063-1.93359375-0.08789062H325.23242187c-9.4921875 0.17578125-18.54492188 1.0546875-26.54296874 2.19726563l38.84765625-60.99609375c2.19726563 1.0546875 4.48242188 2.02148438 6.94335937 2.72460937 4.21875 1.23046875 8.52539063 1.7578125 12.48046875 1.93359375-2.109375 12.56835938-3.8671875 25.48828125-5.2734375 38.93554688-0.08789063 0.61523438-0.08789063 1.23046875-0.08789062 1.84570312-0.08789063 0.26367188-0.08789063 0.52734375-0.17578125 0.79101563-0.08789063 0.87890625-0.79101563 6.24023438-0.96679688 14.23828125-3.33984375-0.52734375-6.85546875-0.87890625-10.37109375-1.14257813-0.17578125-0.08789063-0.43945313-0.17578125-0.703125-0.17578125z m97.55859375 65.12695313c-9.93164063 4.83398438-21.18164063 4.921875-34.453125 0.26367187-20.83007813-7.29492188-25.13671875-36.47460938-25.48828125-56.16210938l79.36523438 37.44140625c-3.95507813 6.328125-10.37109375 14.0625-19.42382813 18.45703125z m75.9375-27.94921876c-23.203125 0-75.84960938-23.73046875-113.37890625-42.62695312h226.31835938c-15.73242188 7.91015625-34.1015625 16.69921875-51.85546876 24.2578125l-0.52734375 0.26367188c-2.28515625 0.96679688-4.65820313 1.93359375-6.94335937 2.90039062-0.26367188 0.08789063-0.43945313 0.17578125-0.703125 0.26367188l-3.95507813 1.58203125-0.52734375 0.26367187c-0.703125 0.26367188-1.40625 0.52734375-2.109375 0.87890625-0.26367188 0.08789063-0.52734375 0.17578125-0.703125 0.26367188-1.23046875 0.43945313-2.4609375 0.96679688-3.60351562 1.40625-0.26367188 0.08789063-0.61523438 0.26367188-0.87890625 0.3515625-2.109375 0.79101563-4.13085938 1.49414063-6.15234375 2.19726562-0.3515625 0.08789063-0.61523438 0.26367188-0.96679688 0.3515625-1.14257813 0.3515625-2.19726563 0.79101563-3.33984375 1.14257813-0.26367188 0.08789063-0.43945313 0.17578125-0.703125 0.26367187-0.61523438 0.17578125-1.23046875 0.43945313-1.84570312 0.61523438-0.3515625 0.08789063-0.61523438 0.17578125-0.87890625 0.26367187-0.96679688 0.3515625-2.02148438 0.61523438-2.98828125 0.87890625-0.26367188 0.08789063-0.61523438 0.17578125-0.87890625 0.26367188-0.61523438 0.17578125-1.14257813 0.3515625-1.7578125 0.52734375-0.26367188 0.08789063-0.52734375 0.17578125-0.79101563 0.17578125-0.96679688 0.26367188-1.93359375 0.52734375-2.8125 0.79101562-0.26367188 0.08789063-0.61523438 0.17578125-0.87890625 0.26367188-0.96679688 0.26367188-1.93359375 0.43945313-2.90039062 0.703125-0.17578125 0-0.3515625 0.08789063-0.61523438 0.17578125-0.52734375 0.08789063-0.96679688 0.17578125-1.49414062 0.3515625-0.26367188 0.08789063-0.52734375 0.08789063-0.87890625 0.17578125-0.79101563 0.17578125-1.58203125 0.26367188-2.37304688 0.43945312-0.26367188 0.08789063-0.52734375 0.08789063-0.79101562 0.17578125-0.43945313 0.08789063-0.87890625 0.17578125-1.31835938 0.17578125-0.26367188 0-0.52734375 0.08789063-0.79101562 0.08789063-0.703125 0.08789063-1.40625 0.17578125-2.02148438 0.26367187-0.26367188 0-0.52734375 0.08789063-0.79101562 0.08789063-0.3515625 0-0.79101563 0.08789063-1.14257813 0.08789062-0.52734375 0-0.96679688 0-1.40625 0.08789063-0.3515625-0.3515625-0.43945313-0.3515625-0.61523437-0.3515625z m110.12695313 28.21289063c-18.19335938 6.328125-32.95898438 3.77929688-45.00000001-7.734375-3.69140625-3.515625-6.6796875-7.47070313-8.87695312-10.98632813l79.36523438-37.44140625c-0.43945313 19.6875-4.65820313 48.8671875-25.48828126 56.16210938z m77.43164062-65.7421875h-7.11914063c-0.52734375 0-1.0546875 0-1.58203124 0.08789063-0.61523438 0-1.23046875 0-1.7578125 0.08789062-0.61523438 0-1.23046875 0.08789063-1.7578125 0.08789063-0.52734375 0-1.0546875 0.08789063-1.58203125 0.08789062-0.61523438 0.08789063-1.31835938 0.08789063-1.93359375 0.17578125-0.43945313 0-0.87890625 0.08789063-1.31835938 0.08789063-0.703125 0.08789063-1.40625 0.08789063-2.02148437 0.17578125-0.3515625 0-0.703125 0.08789063-1.0546875 0.08789062-0.703125 0.08789063-1.49414063 0.17578125-2.19726563 0.26367188-0.26367188 0-0.52734375 0.08789063-0.79101562 0.08789062-0.79101563 0.08789063-1.58203125 0.26367188-2.37304688 0.3515625-0.17578125-7.734375-0.87890625-13.09570313-0.96679687-14.15039063 0.08789063-0.87890625 0.08789063-1.84570313 0-2.72460937-1.40625-13.44726563-3.1640625-26.3671875-5.2734375-38.93554688 4.04296875-0.17578125 8.26171875-0.703125 12.48046874-1.93359375 2.4609375-0.703125 4.74609375-1.58203125 6.94335938-2.72460937l38.84765625 60.99609375c-7.99804688-1.0546875-17.05078125-1.93359375-26.54296875-2.109375z m-50.625-147.21679688c24.52148438 23.203125 37.35351563 43.68164063 34.27734375 54.58007813-3.07617188 10.98632813-12.39257813 12.74414063-20.56640625 11.953125-2.63671875-11.86523438-5.71289063-23.203125-9.05273438-34.01367187-2.19726563-6.94335938-9.58007813-10.81054688-16.52343749-8.61328125s-10.81054688 9.58007813-8.61328126 16.5234375c7.82226563 24.9609375 13.62304688 53.17382813 17.31445313 84.0234375H379.109375c3.69140625-30.84960938 9.4921875-59.0625 17.31445313-84.0234375 2.19726563-6.94335938-1.66992188-14.32617188-8.61328126-16.5234375s-14.32617188 1.66992188-16.52343749 8.61328125c-3.33984375 10.81054688-6.41601563 22.1484375-9.05273438 34.01367187-8.0859375 0.79101563-17.49023438-0.96679688-20.56640625-11.953125-2.98828125-10.8984375 9.66796875-31.2890625 34.1015625-54.40429687 16.69921875-15.8203125 34.453125-29.00390625 41.57226563-34.1015625h191.07421874c7.11914063 5.09765625 24.69726563 18.19335938 41.39648438 33.92578125z m-29.8828125-61.17187499h-203.02734375c-67.32421875 0-122.16796875-54.84375-122.16796875-122.16796876V313.015625c26.45507813-30.32226563 69.9609375-71.27929688 108.28125-65.12695313 0 0 22.41210938 5.2734375-2.63671875 26.36718751-21.35742188 17.9296875 16.78710938 48.95507813 58.18359375 26.10351562 0 0-49.74609375-2.63671875-18.72070313-33.75 37.08984375-37.17773438 159.9609375-20.21484375 159.96093751-20.21484375s98.34960938 17.66601563 142.29492187 62.578125v162.421875c0 67.5-54.84375 122.25585938-122.16796875 122.25585938z" fill="" p-id="6463"></path><path d="M608.41601563 620.89648438H417.25390625c-7.11914063 5.09765625-24.87304688 18.28125-41.57226563 34.10156249-24.34570313 23.11523438-37.08984375 43.50585938-34.1015625 54.40429688 3.07617188 10.98632813 12.39257813 12.74414063 20.56640625 11.953125 2.63671875-11.86523438 5.625-23.203125 9.05273438-34.01367188 2.19726563-6.94335938 9.58007813-10.81054688 16.5234375-8.61328125s10.81054688 9.58007813 8.61328125 16.5234375c-7.82226563 24.9609375-13.62304688 53.17382813-17.31445313 84.02343751h267.53906251c-3.69140625-30.84960938-9.4921875-59.0625-17.31445313-84.0234375-2.19726563-6.94335938 1.66992188-14.32617188 8.61328125-16.5234375s14.32617188 1.66992188 16.5234375 8.61328125c3.33984375 10.81054688 6.41601563 22.1484375 9.05273437 34.01367187 8.0859375 0.79101563 17.49023438-0.96679688 20.56640625-11.953125s-9.75585938-31.37695313-34.27734375-54.58007812c-16.61132813-15.73242188-34.18945313-28.828125-41.30859375-33.92578125z m-46.66992188 57.48046874l-45.79101563 43.06640625c-0.87890625 0.79101563-1.93359375 1.23046875-2.98828125 1.23046875s-2.19726563-0.43945313-2.98828125-1.23046875l-45.79101562-43.06640625c-1.49414063-1.40625-1.84570313-3.60351563-0.79101563-5.44921875l12.12890625-20.83007812c0.79101563-1.31835938 2.19726563-2.19726563 3.77929688-2.19726563h67.41210938c1.58203125 0 2.98828125 0.79101563 3.77929687 2.19726563l12.12890625 20.83007812c0.87890625 1.84570313 0.61523438 4.04296875-0.87890625 5.44921875zM519.55859375 839.04101563c-0.26367188 0-0.52734375 0.08789063-0.79101563 0.08789062 0.17578125-0.08789063 0.43945313-0.08789063 0.79101563-0.08789063zM514.72460938 839.48046875c-0.52734375 0-0.96679688 0-1.40625 0.08789063 0.43945313-0.08789063 0.96679688-0.08789063 1.40625-0.08789063zM534.32421875 835.70117188c-0.26367188 0.08789063-0.52734375 0.17578125-0.79101563 0.17578124 0.26367188 0 0.52734375-0.08789063 0.79101563-0.17578125zM536.9609375 834.99804688c-0.26367188 0.08789063-0.61523438 0.17578125-0.87890625 0.26367187 0.26367188-0.08789063 0.52734375-0.17578125 0.87890625-0.26367188zM516.65820313 839.3046875c-0.26367188 0-0.52734375 0.08789063-0.79101563 0.08789063 0.26367188 0 0.52734375 0 0.79101562-0.08789063zM524.83203125 838.07421875c-0.26367188 0.08789063-0.52734375 0.08789063-0.87890625 0.17578125 0.3515625-0.08789063 0.61523438-0.08789063 0.87890625-0.17578125zM561.74609375 826.20898438l-0.52734375 0.26367187c0.17578125-0.17578125 0.3515625-0.17578125 0.52734375-0.26367188zM573.96289063 821.19921875l-0.52734375 0.26367188 0.52734375-0.26367188zM566.4921875 824.27539063c-0.26367188 0.08789063-0.43945313 0.17578125-0.703125 0.26367187 0.26367188-0.08789063 0.43945313-0.17578125 0.703125-0.26367188zM521.66796875 838.68945313c-0.26367188 0.08789063-0.52734375 0.08789063-0.79101563 0.17578124 0.26367188-0.08789063 0.52734375-0.17578125 0.79101563-0.17578125zM530.72070313 836.75585938c-0.26367188 0.08789063-0.61523438 0.17578125-0.87890626 0.26367187 0.26367188-0.17578125 0.52734375-0.26367188 0.87890625-0.26367188zM543.37695313 832.88867188c-0.26367188 0.08789063-0.43945313 0.17578125-0.70312501 0.26367187 0.17578125-0.08789063 0.43945313-0.17578125 0.703125-0.26367188zM547.68359375 831.48242188c-0.3515625 0.08789063-0.61523438 0.26367188-0.96679688 0.35156249 0.26367188-0.17578125 0.61523438-0.26367188 0.96679688-0.3515625zM554.71484375 828.93359375c-0.26367188 0.08789063-0.61523438 0.26367188-0.87890625 0.3515625 0.26367188-0.17578125 0.61523438-0.26367188 0.87890625-0.3515625zM526.94140625 837.63476563c-0.17578125 0-0.3515625 0.08789063-0.61523438 0.17578124 0.17578125-0.08789063 0.43945313-0.17578125 0.61523438-0.17578125zM559.109375 827.26367188c-0.26367188 0.08789063-0.52734375 0.17578125-0.703125 0.26367187 0.17578125-0.08789063 0.43945313-0.17578125 0.703125-0.26367188zM540.828125 833.76757813c-0.3515625 0.08789063-0.61523438 0.17578125-0.87890625 0.26367187 0.26367188-0.08789063 0.52734375-0.17578125 0.87890625-0.26367188z" fill="#00A0EA" p-id="6464"></path><path d="M514.72460938 839.48046875c0.3515625 0 0.79101563-0.08789063 1.14257812-0.08789063 0.26367188 0 0.52734375 0 0.79101563-0.08789062 0.703125-0.08789063 1.31835938-0.17578125 2.02148437-0.26367188 0.26367188 0 0.52734375-0.08789063 0.79101563-0.08789062 0.43945313-0.08789063 0.87890625-0.08789063 1.31835937-0.17578125 0.26367188 0 0.52734375-0.08789063 0.79101563-0.17578125 0.79101563-0.08789063 1.58203125-0.26367188 2.37304687-0.43945313 0.26367188-0.08789063 0.52734375-0.08789063 0.87890625-0.17578124 0.52734375-0.08789063 0.96679688-0.17578125 1.49414063-0.3515625 0.17578125 0 0.3515625-0.08789063 0.61523437-0.17578125 0.96679688-0.17578125 1.93359375-0.43945313 2.90039063-0.703125 0.26367188-0.08789063 0.61523438-0.17578125 0.87890625-0.26367188 0.96679688-0.26367188 1.84570313-0.52734375 2.8125-0.79101563 0.26367188-0.08789063 0.52734375-0.17578125 0.79101562-0.17578125 0.52734375-0.17578125 1.14257813-0.3515625 1.7578125-0.52734375 0.26367188-0.08789063 0.61523438-0.17578125 0.87890625-0.26367187 0.96679688-0.26367188 1.93359375-0.61523438 2.98828125-0.87890625 0.26367188-0.08789063 0.61523438-0.17578125 0.87890625-0.26367188 0.61523438-0.17578125 1.23046875-0.3515625 1.84570313-0.61523437 0.26367188-0.08789063 0.43945313-0.17578125 0.703125-0.26367188 1.14257813-0.3515625 2.19726563-0.703125 3.33984375-1.14257812 0.3515625-0.08789063 0.61523438-0.26367188 0.96679687-0.3515625 2.02148438-0.703125 4.04296875-1.49414063 6.15234375-2.19726563 0.26367188-0.08789063 0.61523438-0.26367188 0.87890625-0.3515625 1.23046875-0.43945313 2.37304688-0.87890625 3.60351563-1.40625 0.26367188-0.08789063 0.52734375-0.17578125 0.703125-0.26367187 0.703125-0.26367188 1.40625-0.52734375 2.109375-0.87890625l0.52734375-0.26367188 3.95507812-1.58203125c0.26367188-0.08789063 0.43945313-0.17578125 0.703125-0.26367187 2.28515625-0.96679688 4.5703125-1.84570313 6.94335938-2.90039063l0.52734374-0.26367187c17.75390625-7.55859375 36.12304688-16.34765625 51.85546875-24.2578125H399.5c37.6171875 18.89648438 90.17578125 42.62695313 113.37890625 42.62695313h0.3515625c0.52734375 0.26367188 1.0546875 0.26367188 1.49414063 0.26367187z" fill="#ED1C24" p-id="6465"></path><path d="M602.79101563 441.24804687c9.22851563 6.6796875 20.30273438 10.28320313 31.99218749 10.28320313 14.58984375 0 28.38867188-5.71289063 38.671875-15.99609375 10.37109375-10.37109375 15.99609375-24.08203125 15.99609375-38.671875 0-11.6015625-3.60351563-22.76367188-10.28320312-31.9921875l-76.37695313 76.37695313zM352.21484375 435.53515625c10.37109375 10.37109375 24.08203125 15.99609375 38.671875 15.99609375 11.6015625 0 22.76367188-3.60351563 31.9921875-10.28320313l-76.37695313-76.37695312c-15.38085938 21.35742188-13.44726563 51.41601563 5.71289063 70.6640625z" fill="" p-id="6466"></path><path d="M481.67773437 658.77734375l-9.05273437 15.64453125 7.734375 7.20703125 8.34960938-22.8515625zM512.87890625 712.21484375l4.65820313-4.39453125-9.93164063-0.52734375zM535.73046875 658.77734375l0.17578125 0.26367188-3.25195313 2.90039062-3.33984375 2.90039063-5.27343749-6.15234376h-26.01562501l-5.71289062 15.82031251h42.36328125l9.140625 8.61328124 9.31640625-8.70117187-9.05273438-15.64453125z" fill="#FBB03B" p-id="6467"></path><path d="M550.40820313 652.18554688c-0.79101563-1.31835938-2.19726563-2.19726563-3.77929688-2.19726563h-67.41210938c-1.58203125 0-2.98828125 0.79101563-3.77929687 2.19726562l-12.12890625 20.83007813c-1.0546875 1.7578125-0.703125 4.04296875 0.79101563 5.44921875l45.79101562 43.06640625c0.87890625 0.79101563 1.93359375 1.23046875 2.98828125 1.23046875s2.19726563-0.43945313 2.98828125-1.23046875l45.79101563-43.06640625c1.49414063-1.40625 1.84570313-3.60351563 0.79101562-5.44921875l-12.04101562-20.83007813z m-77.78320313 22.23632812l9.140625-15.64453125h6.94335938l-8.34960938 22.8515625-7.734375-7.20703125z m40.25390625 37.79296875l-5.2734375-4.921875 9.93164063 0.52734375-4.65820313 4.39453125z m13.359375-12.74414063l-27.50976563-1.49414062-0.96679687-0.08789062-15.64453125-14.58984376h49.04296875l5.88867188 5.53710938-10.81054688 10.63476563z m17.578125-16.34765624l-9.140625-8.61328126h-42.36328125l5.80078125-15.82031249h25.92773438l5.27343749 6.06445312 3.33984375-2.90039063 3.33984375-2.90039062-0.26367187-0.17578125h8.34960938l9.14062499 15.64453125-9.40429687 8.70117188z" fill="#ED1C24" p-id="6468"></path><path d="M512.52734375 683.29882813H482.1171875l15.55664063 14.67773437 0.96679687 0.08789062 27.59765625 1.40625 10.81054688-10.63476562-5.88867188-5.53710938z" fill="#FBB03B" p-id="6469"></path><path d="M377 811.53125c0.43945313 19.6875 4.65820313 48.95507813 25.48828125 56.16210938 13.27148438 4.65820313 24.609375 4.5703125 34.453125-0.26367188 9.05273438-4.39453125 15.38085938-12.12890625 19.42382813-18.45703125l-79.36523438-37.44140625zM569.12890625 849.06054688c2.19726563 3.515625 5.18554688 7.47070313 8.87695313 10.98632812 12.04101563 11.51367188 26.80664063 14.0625 44.99999999 7.734375 20.83007813-7.29492188 25.13671875-36.47460938 25.48828125-56.16210938L569.12890625 849.06054688z" fill="#00A0EA" p-id="6470"></path></svg>