<?xml version="1.0" standalone="no"?><!DOCTYPE svg PUBLIC "-//W3C//DTD SVG 1.1//EN" "http://www.w3.org/Graphics/SVG/1.1/DTD/svg11.dtd"><svg t="1776909584253" class="icon" viewBox="0 0 1024 1024" version="1.1" xmlns="http://www.w3.org/2000/svg" p-id="5909" xmlns:xlink="http://www.w3.org/1999/xlink" width="200" height="200"><path d="M304.85324432 870.13927035c0-0.34032875 0.11344291-0.68065747 0.22688581-1.02098619 0-0.79410037 0-1.58820077 0.11344293-2.38230112 1.81508658-17.35676541 4.08394481-34.14631625 6.80657467-50.25520964-5.2183739-0.22688582-10.66363365-0.9075433-16.10889337-2.49574405-3.17640151-0.9075433-6.1259172-2.04197238-8.96198999-3.51673023l-50.14176671 78.7293803c10.32330491-1.58820077 22.00792475-2.72262986 34.25975915-2.83607278h9.41576162c0.79410037 0 1.70164367 0 2.49574405 0.11344291 0.68065747 0 1.36131493 0.11344291 2.0419724 0.11344291 0.68065747 0 1.24787202 0.11344291 1.92852949 0.11344292 0.79410037 0 1.58820077 0.11344291 2.38230114 0.11344291 0.34032875 0 0.68065747 0 1.0209862 0.11344291 4.53771644 0.34032875 9.0754329 0.9075433 13.3862635 1.47475782 0.11344291-10.20986199 1.02098622-17.24332248 1.13442911-18.26430867z m425.52435954-56.154241c-5.44525973 1.58820077-11.00396238 2.26885823-16.10889337 2.49574405 2.72262986 16.22233629 4.9914881 32.89844422 6.80657468 50.25520964 0.11344291 1.24787202 0.11344291 2.38230113 0 3.51673022 0.22688582 1.36131493 1.02098622 8.28133252 1.24787201 18.26430868 1.02098622-0.11344291 2.04197238-0.34032875 3.0629586-0.45377163 0.34032875 0 0.68065747-0.11344291 1.02098621-0.11344291 0.9075433-0.11344291 1.92852949-0.22688582 2.83607279-0.34032873 0.45377165 0 0.9075433-0.11344291 1.36131491-0.1134429 0.9075433-0.11344291 1.70164367-0.22688582 2.60918698-0.22688584 0.56721456 0 1.13442911-0.11344291 1.70164364-0.11344291 0.79410037-0.11344291 1.70164367-0.11344291 2.49574405-0.22688582 0.68065747 0 1.36131493-0.11344291 2.04197241-0.11344291 0.79410037 0 1.47475783-0.11344291 2.26885822-0.11344291s1.58820077-0.11344291 2.26885822-0.11344292c0.68065747 0 1.36131493 0 2.0419724-0.11344291h9.18887579c12.2518344 0.22688582 23.93645425 1.36131493 34.25975917 2.83607278l-50.14176672-78.7293803c-2.83607279 1.24787202-5.78558847 2.49574405-8.96198999 3.40328732z" fill="#ED1C24" p-id="5910"></path><path d="M808.99354125 250.06031826c-56.72145555-57.96932757-183.66407307-80.77135268-183.66407306-80.77135271s-158.59318973-22.00792475-206.46609821 26.09186956c-40.04534762 40.15879052 24.16334007 43.56207786 24.16334006 43.56207787-53.43161112 29.49515689-102.55239163-10.55019073-75.09920715-33.69254461 32.33122966-27.22629867 3.40328733-34.03287333 3.40328736-34.03287331-49.34766633-7.94100378-105.61535023 44.92339278-139.76166649 84.06119711V459.81626089c0 86.8972699 70.78837652 157.68564643 157.68564642 157.68564642h262.05312465c86.8972699 0 157.68564643-70.78837652 157.68564642-157.68564642V250.06031826zM355.6756685 433.95127716c-18.83152324 0-36.64206027-7.37378922-49.91488088-20.64660982-24.84399753-24.84399753-27.22629867-63.64147312-7.37378922-91.20810053l98.58188975 98.58188976c-11.91150567 8.62166124-26.20531246 13.27282059-41.29321965 13.27282059zM720.3946277 413.30466734c-13.38626351 13.38626351-31.08335764 20.64660982-49.91488088 20.64660982-14.97446427 0-29.38171396-4.65115936-41.29321964-13.27282059l98.58188972-98.58188976c8.62166124 11.91150567 13.27282059 26.20531246 13.27282062 41.29321965 0 18.83152324-7.37378922 36.52861737-20.64660982 49.91488088z" fill="#FFECD9" p-id="5911"></path><path d="M843.02641459 459.70281798v-254.11212087c0-51.04931-19.96595235-99.1491043-56.2676839-135.45083585s-84.40152584-56.26768391-135.45083586-56.26768391h-262.05312465c-51.04931 0-99.1491043 19.96595235-135.45083585 56.26768391s-56.26768391 84.40152584-56.2676839 135.45083585v254.11212087c0 51.04931 19.96595235 99.1491043 56.2676839 135.45083586 24.95744045 24.95744045 55.58702644 42.20076294 88.8257994 50.59553835-9.1888758 7.48723213-19.62562361 16.33577919-29.72204271 25.97842664-44.01584952 41.74699129-61.48605783 75.77986462-53.65849696 104.25403531 0.9075433 3.17640151 2.04197238 6.2393601 3.28984442 9.1888758L185.96507348 905.64690154c-3.85705897 6.01247428-3.51673025 13.84003515 0.90754329 19.5121807 4.42427352 5.67214554 11.91150567 7.94100378 18.71808034 5.78558846 0.79410037-0.22688582 54.11226859-17.24332248 99.82976177-7.60067505 4.31083063 31.42368637 17.58365122 67.27164628 53.99882568 79.97725233 12.02494857 4.19738772 23.59612551 6.2393601 34.7135308 6.23936011 12.59216313 0 24.61711171-2.72262986 35.84795992-8.1678896 16.22233629-7.82756087 27.79351323-20.19283817 35.62107408-31.31024345h94.61138785c7.82756087 11.11740529 19.3987378 23.4826826 35.6210741 31.31024345 11.23084821 5.44525973 23.14235386 8.1678896 35.84795991 8.1678896 11.11740529 0 22.6885822-2.04197238 34.71353079-6.23936011 36.41517446-12.70560604 49.68799507-48.55356595 53.99882569-79.86380941 45.71749317-9.86953327 99.37599012 7.26034632 100.05664759 7.48723213 6.80657467 2.26885823 14.2938068 0 18.71808033-5.67214555s4.76460227-13.49970643 0.90754329-19.62562361l-76.6874079-120.4763716c1.36131493-2.83607279 2.38230113-5.89903138 3.28984443-9.1888758 7.94100378-28.47417068-9.64264743-62.62048692-53.65849696-104.25403531-9.0754329-8.62166124-18.26430868-16.56266502-26.77252703-23.48268259 37.66304648-7.03346049 72.37657728-25.18432626 100.17009052-53.0912824 36.64206027-36.30173155 56.60801265-84.40152584 56.60801262-135.45083586zM289.19812259 886.81537829c-0.79410037-0.11344291-1.58820077-0.11344291-2.38230114-0.11344291-0.56721456 0-1.24787202-0.11344291-1.92852948-0.11344292-0.68065747 0-1.36131493-0.11344291-2.04197239-0.11344291-0.79410037 0-1.70164367-0.11344291-2.49574404-0.11344291h-9.41576163c-12.2518344 0.22688582-23.93645425 1.36131493-34.25975916 2.83607278l50.1417667-78.7293803c2.83607279 1.36131493 5.78558847 2.60918695 8.96198998 3.51673023 5.44525973 1.58820077 11.00396238 2.26885823 16.10889338 2.49574405-2.72262986 16.22233629-4.9914881 32.89844422-6.80657468 50.25520964-0.11344291 0.79410037-0.11344291 1.58820077-0.1134429 2.38230112-0.11344291 0.34032875-0.11344291 0.68065747-0.22688582 1.02098619-0.11344291 1.13442911-1.02098622 8.05444669-1.24787201 18.37775159-4.31083063-0.68065747-8.84854707-1.13442911-13.38626352-1.47475783-0.22688582-0.11344291-0.56721456-0.22688582-0.90754329-0.22688582z m125.92163133 84.06119712c-12.81904896 6.2393601-27.33974158 6.35280301-44.46962115 0.34032874-26.88596993-9.41576162-32.44467258-47.0788081-32.89844422-72.49002021l102.43894871 48.32668013c-5.10493101 8.1678896-13.38626351 18.15086577-25.07088334 23.82301134z m98.01467519-36.07484572c-29.94892853 0-97.90123228-30.62958599-146.34135533-55.01981189h292.11549608c-20.30628109 10.20986199-44.01584952 21.55415312-66.93131753 31.31024348l-0.68065747 0.34032871c-2.94951569 1.24787202-6.01247428 2.49574405-8.96198996 3.74361608-0.34032875 0.11344291-0.56721456 0.22688582-0.90754329 0.34032872l-5.10493103 2.0419724-0.68065746 0.34032874c-0.9075433 0.34032875-1.81508658 0.68065747-2.72262985 1.13442911-0.34032875 0.11344291-0.68065747 0.22688582-0.9075433 0.34032872-1.58820077 0.56721456-3.17640151 1.24787202-4.65115936 1.81508659-0.34032875 0.11344291-0.79410037 0.34032875-1.1344291 0.45377165-2.72262986 1.02098622-5.33181681 1.92852949-7.94100377 2.83607278-0.45377165 0.11344291-0.79410037 0.34032875-1.24787204 0.45377163-1.47475783 0.45377165-2.83607279 1.02098622-4.31083062 1.47475785-0.34032875 0.11344291-0.56721456 0.22688582-0.90754328 0.34032873-0.79410037 0.22688582-1.58820077 0.56721456-2.38230113 0.79410039-0.45377165 0.11344291-0.79410037 0.22688582-1.13442912 0.34032872-1.24787202 0.45377165-2.60918695 0.79410037-3.85705897 1.13442911-0.34032875 0.11344291-0.79410037 0.22688582-1.13442911 0.34032875-0.79410037 0.22688582-1.47475783 0.45377165-2.26885822 0.68065745-0.34032875 0.11344291-0.68065747 0.22688582-1.0209862 0.22688582-1.24787202 0.34032875-2.49574405 0.68065747-3.63017317 1.02098621-0.34032875 0.11344291-0.79410037 0.22688582-1.1344291 0.34032874-1.24787202 0.34032875-2.49574405 0.56721456-3.74361608 0.90754327-0.22688582 0-0.45377165 0.11344291-0.79410037 0.22688582-0.68065747 0.11344291-1.24787202 0.22688582-1.92852948 0.45377165-0.34032875 0.11344291-0.68065747 0.11344291-1.13442912 0.22688582-1.02098622 0.22688582-2.04197238 0.34032875-3.0629586 0.56721455-0.34032875 0.11344291-0.68065747 0.11344291-1.0209862 0.22688585-0.56721456 0.11344291-1.13442911 0.22688582-1.70164366 0.2268858-0.34032875 0-0.68065747 0.11344291-1.0209862 0.11344291-0.9075433 0.11344291-1.81508658 0.22688582-2.60918697 0.34032875-0.34032875 0-0.68065747 0.11344291-1.0209862 0.11344291-0.45377165 0-1.02098622 0.11344291-1.47475784 0.11344291-0.68065747 0-1.24787202 0-1.81508657 0.1134429-0.45377165-0.45377165-0.56721456-0.45377165-0.79410038-0.45377163z m142.14396761 36.41517446c-23.4826826 8.1678896-42.54109166 4.87804519-58.08277047-9.98297618-4.76460227-4.53771644-8.62166124-9.64264743-11.45773402-14.1803639l102.43894871-48.32668013c-0.56721456 25.41121209-6.01247428 63.07425859-32.89844422 72.49002021z m99.94320468-84.85529751h-9.18887579c-0.68065747 0-1.36131493 0-2.0419724 0.11344291-0.79410037 0-1.58820077 0-2.26885822 0.11344291-0.79410037 0-1.58820077 0.11344291-2.26885822 0.11344292-0.68065747 0-1.36131493 0.11344291-2.04197241 0.11344291-0.79410037 0.11344291-1.70164367 0.11344291-2.49574405 0.22688582-0.56721456 0-1.13442911 0.11344291-1.70164364 0.11344291-0.9075433 0.11344291-1.81508658 0.11344291-2.60918698 0.22688583-0.45377165 0-0.9075433 0.11344291-1.36131491 0.11344292-0.9075433 0.11344291-1.92852949 0.22688582-2.83607279 0.34032871-0.34032875 0-0.68065747 0.11344291-1.02098621 0.11344292-1.02098622 0.11344291-2.04197238 0.34032875-3.0629586 0.45377162-0.22688582-9.98297616-1.13442911-16.90299375-1.24787201-18.26430867 0.11344291-1.13442911 0.11344291-2.38230113 0-3.51673024-1.81508658-17.35676541-4.08394481-34.03287333-6.80657468-50.25520963 5.2183739-0.22688582 10.66363365-0.9075433 16.10889337-2.49574404 3.17640151-0.9075433 6.1259172-2.04197238 8.96198999-3.51673024l50.14176672 78.72938029c-10.32330491-1.36131493-22.00792475-2.49574405-34.25975917-2.72262985z m-65.34311679-190.0168761c31.6505722 29.94892853 48.21323721 56.38112682 44.24273533 70.44804779-3.97050189 14.18036388-15.99545046 16.4492221-26.5456412 15.42823591-3.40328733-15.31479302-7.37378922-29.94892853-11.68461984-43.9024066-2.83607279-8.96198998-12.3652773-13.95347805-21.32726729-11.11740528s-13.95347805 12.3652773-11.11740529 21.32726727c10.09641909 32.21778676 17.58365122 68.63296121 22.3482535 108.45142303H340.47431841c4.76460227-39.8184618 12.2518344-76.23363626 22.3482535-108.45142303 2.83607279-8.96198998-2.15541531-18.49119452-11.1174053-21.32726727s-18.49119452 2.15541531-21.32726729 11.11740528c-4.31083063 13.95347805-8.28133252 28.5876136-11.68461984 43.9024066-10.43674783 1.02098622-22.57513931-1.24787202-26.54564119-15.42823591-3.85705897-14.06692098 12.47872022-40.38567636 44.01584949-70.22116196 21.55415312-20.419724 44.46962115-37.43616067 53.65849697-44.01584951h246.62488872c9.1888758 6.57968885 31.87745803 23.4826826 53.43161114 43.78896368z m-38.57058978-78.95626614h-262.05312465c-86.8972699 0-157.68564643-70.78837652-157.68564642-157.68564642V255.16524926c34.14631625-39.13780434 90.30055724-92.00220089 139.76166649-84.06119712 0 0 28.92794234 6.80657467-3.40328736 34.03287332-27.56662739 23.14235386 21.66759604 63.18770148 75.09920715 33.6925446 0 0-64.20868768-3.40328733-24.16334006-43.56207787 47.87290849-47.9863514 206.46609821-26.09186954 206.46609821-26.09186954s126.94261752 22.80202513 183.66407306 80.77135271v209.64249971c0 87.12415574-70.78837652 157.79908933-157.68564642 157.79908933z" p-id="5912"></path><path d="M636.44687347 652.55576686H389.70854184c-9.1888758 6.57968885-32.10434385 23.59612551-53.65849696 44.01584951-31.42368637 29.83548562-47.87290849 56.154241-44.01584951 70.22116196 3.97050189 14.18036388 15.99545046 16.4492221 26.54564119 15.42823591 3.40328733-15.31479302 7.26034632-29.94892853 11.68461986-43.9024066 2.83607279-8.96198998 12.3652773-13.95347805 21.32726728-11.11740528s13.95347805 12.3652773 11.11740531 21.32726727c-10.09641909 32.21778676-17.58365122 68.63296121-22.34825351 108.45142303h345.3202214c-4.76460227-39.8184618-12.2518344-76.23363626-22.34825348-108.45142303-2.83607279-8.96198998 2.15541531-18.49119452 11.11740528-21.32726727s18.49119452 2.15541531 21.32726729 11.11740528c4.31083063 13.95347805 8.28133252 28.5876136 11.68461984 43.9024066 10.43674783 1.02098622 22.57513931-1.24787202 26.54564119-15.42823591s-12.59216313-40.49911927-44.24273533-70.44804779c-21.44071019-20.30628109-44.12929242-37.20927484-53.31816822-43.78896368z m-60.23818579 74.19166385l-59.10375667 55.58702644c-1.13442911 1.02098622-2.49574405 1.58820077-3.85705899 1.58820078s-2.83607279-0.56721456-3.85705897-1.58820078l-59.10375668-55.58702644c-1.92852949-1.81508658-2.38230113-4.65115936-1.02098623-7.03346048l15.65512176-26.88596995c1.02098622-1.70164367 2.83607279-2.83607279 4.87804516-2.83607275h87.01071284c2.04197238 0 3.85705897 1.02098622 4.87804517 2.83607275l15.65512173 26.88596995c1.13442911 2.38230113 0.79410037 5.2183739-1.13442912 7.03346048z m-54.45259732 207.37364151c-0.34032875 0-0.68065747 0.11344291-1.02098621 0.11344292 0.22688582-0.11344291 0.56721456-0.11344291 1.02098621-0.11344292z m-6.23936011 0.56721455c-0.68065747 0-1.24787202 0-1.81508658 0.11344292 0.56721456-0.11344291 1.24787202-0.11344291 1.81508658-0.11344292z m25.29776918-4.87804518c-0.34032875 0.11344291-0.68065747 0.22688582-1.0209862 0.22688582 0.34032875 0 0.68065747-0.11344291 1.0209862-0.22688582z m3.40328733-0.90754329c-0.34032875 0.11344291-0.79410037 0.22688582-1.13442912 0.34032874 0.34032875-0.11344291 0.68065747-0.22688582 1.13442912-0.34032874z m-26.20531248 5.55870264c-0.34032875 0-0.68065747 0.11344291-1.02098618 0.11344291 0.34032875 0 0.68065747 0 1.02098618-0.11344291z m10.55019074-1.58820075c-0.34032875 0.11344291-0.68065747 0.11344291-1.1344291 0.22688582 0.45377165-0.11344291 0.79410037-0.11344291 1.1344291-0.22688582z m47.64602266-15.314793l-0.68065746 0.34032874c0.22688582-0.22688582 0.45377165-0.22688582 0.68065746-0.34032874z m15.76856465-6.46624591l-0.68065747 0.34032871 0.68065747-0.34032871z m-9.64264743 3.97050188c-0.34032875 0.11344291-0.56721456 0.22688582-0.90754329 0.34032871 0.34032875-0.11344291 0.56721456-0.22688582 0.90754329-0.34032871z m-57.85588468 18.60463741c-0.34032875 0.11344291-0.68065747 0.11344291-1.02098619 0.22688582 0.34032875-0.11344291 0.68065747-0.22688582 1.02098619-0.22688582z m11.68461985-2.49574403c-0.34032875 0.11344291-0.79410037 0.22688582-1.13442912 0.34032872 0.34032875-0.22688582 0.68065747-0.34032875 1.13442912-0.34032872z m16.3357792-4.99148811c-0.34032875 0.11344291-0.56721456 0.22688582-0.90754331 0.34032873 0.22688582-0.11344291 0.56721456-0.22688582 0.90754331-0.34032873z m5.55870265-1.81508657c-0.45377165 0.11344291-0.79410037 0.34032875-1.24787202 0.45377166 0.34032875-0.22688582 0.79410037-0.34032875 1.24787202-0.45377166z m9.07543288-3.28984441c-0.34032875 0.11344291-0.79410037 0.34032875-1.13442912 0.45377163 0.34032875-0.22688582 0.79410037-0.34032875 1.13442912-0.45377163z m-35.8479599 11.2308482c-0.22688582 0-0.45377165 0.11344291-0.79410038 0.2268858 0.22688582-0.11344291 0.56721456-0.22688582 0.79410038-0.2268858z m41.52010544-13.38626353c-0.34032875 0.11344291-0.68065747 0.22688582-0.90754327 0.34032875 0.22688582-0.11344291 0.56721456-0.22688582 0.90754327-0.34032875z m-23.5961255 8.39477542c-0.45377165 0.11344291-0.79410037 0.22688582-1.1344291 0.34032875 0.34032875-0.11344291 0.68065747-0.22688582 1.1344291-0.34032875z" fill="#00A0EA" p-id="5913"></path><path d="M515.51673025 934.68828677c0.45377165 0 1.02098622-0.11344291 1.47475785-0.11344292 0.34032875 0 0.68065747 0 1.02098618-0.11344291 0.9075433-0.11344291 1.70164367-0.22688582 2.60918696-0.34032872 0.34032875 0 0.68065747-0.11344291 1.02098619-0.11344293 0.56721456-0.11344291 1.13442911-0.11344291 1.70164369-0.22688581 0.34032875 0 0.68065747-0.11344291 1.02098618-0.22688581 1.02098622-0.11344291 2.04197238-0.34032875 3.06295862-0.56721456 0.34032875-0.11344291 0.68065747-0.11344291 1.1344291-0.22688584 0.68065747-0.11344291 1.24787202-0.22688582 1.9285295-0.45377162 0.22688582 0 0.45377165-0.11344291 0.79410038-0.22688584 1.24787202-0.22688582 2.49574405-0.56721456 3.74361605-0.90754327 0.34032875-0.11344291 0.79410037-0.22688582 1.13442912-0.34032875 1.24787202-0.34032875 2.38230113-0.68065747 3.63017316-1.0209862 0.34032875-0.11344291 0.68065747-0.22688582 1.0209862-0.22688582 0.68065747-0.22688582 1.47475783-0.45377165 2.26885821-0.68065747 0.34032875-0.11344291 0.79410037-0.22688582 1.13442912-0.34032873 1.24787202-0.34032875 2.49574405-0.79410037 3.85705898-1.1344291 0.34032875-0.11344291 0.79410037-0.22688582 1.1344291-0.34032874 0.79410037-0.22688582 1.58820077-0.45377165 2.38230112-0.79410038 0.34032875-0.11344291 0.56721456-0.22688582 0.90754331-0.34032875 1.47475783-0.45377165 2.83607279-0.9075433 4.31083063-1.47475782 0.45377165-0.11344291 0.79410037-0.34032875 1.24787202-0.45377166 2.60918695-0.9075433 5.2183739-1.92852949 7.94100376-2.83607277 0.34032875-0.11344291 0.79410037-0.34032875 1.13442912-0.45377163 1.58820077-0.56721456 3.0629586-1.13442911 4.65115936-1.8150866 0.34032875-0.11344291 0.68065747-0.22688582 0.90754327-0.34032872 0.9075433-0.34032875 1.81508658-0.68065747 2.7226299-1.13442911l0.68065744-0.34032875 5.104931-2.04197238c0.34032875-0.11344291 0.56721456-0.22688582 0.90754329-0.34032874 2.94951569-1.24787202 5.89903138-2.38230113 8.96198998-3.74361607l0.68065748-0.34032873c22.91546805-9.75609036 46.62503647-21.10038147 66.93131754-31.31024346H366.79307378c48.55356595 24.39022588 116.3924268 55.01981189 146.34135533 55.01981188h0.45377166c0.68065747 0.34032875 1.36131493 0.34032875 1.92852948 0.34032873z" fill="#ED1C24" p-id="5914"></path><path d="M629.18652718 420.67845657c11.91150567 8.62166124 26.20531246 13.27282059 41.29321964 13.27282059 18.83152324 0 36.64206027-7.37378922 49.91488088-20.64660982 13.38626351-13.38626351 20.64660982-31.08335764 20.64660982-49.91488088 0-14.97446427-4.65115936-29.38171396-13.27282062-41.29321965l-98.58188972 98.58188976zM305.76078762 413.30466734c13.38626351 13.38626351 31.08335764 20.64660982 49.91488088 20.64660982 14.97446427 0 29.38171396-4.65115936 41.29321965-13.27282059l-98.58188975-98.58188976c-19.85250944 27.56662739-17.35676541 66.364103 7.37378922 91.20810053z" p-id="5915"></path><path d="M472.86219566 701.44966155l-11.68461983 20.19283817 9.98297618 9.3023187 10.77707655-29.49515687z m40.27223345 68.97328994l6.0124743-5.67214555-12.81904895-0.68065746z m29.49515688-68.97328994l0.22688583 0.34032872-4.19738772 3.74361607-4.31083061 3.74361607-6.80657467-7.94100379h-33.57910169l-7.37378922 20.419724h54.67948315l11.79806276 11.1174053 12.02494858-11.2308482-11.68461985-20.19283817z" fill="#FBB03B" p-id="5916"></path><path d="M561.57455216 692.94144321c-1.02098622-1.70164367-2.83607279-2.83607279-4.87804517-2.83607278h-87.01071285c-2.04197238 0-3.85705897 1.02098622-4.87804516 2.83607278l-15.65512174 26.88596992c-1.36131493 2.26885823-0.9075433 5.2183739 1.02098621 7.0334605l59.10375669 55.58702643c1.13442911 1.02098622 2.49574405 1.58820077 3.85705897 1.58820076s2.83607279-0.56721456 3.85705899-1.58820076l59.10375667-55.58702643c1.92852949-1.81508658 2.38230113-4.65115936 1.0209862-7.0334605l-15.54167881-26.88596992z m-100.39697633 28.70105651l11.79806274-20.19283817h8.96198999l-10.77707655 29.49515687-9.98297618-9.3023187z m51.95685328 48.78045177l-6.80657465-6.35280301 12.81904895 0.68065746-6.0124743 5.67214555z m17.24332249-16.44922211l-35.50763117-1.92852948-1.24787203-0.11344291-20.19283817-18.83152324h63.3011444l7.60067503 7.14690338-13.95347806 13.72659225z m22.68858222-21.10038146l-11.79806276-11.1174053h-54.67948315l7.48723214-20.419724h33.46565877l6.80657467 7.82756088 4.31083061-3.74361606 4.31083063-3.74361608-0.34032874-0.22688581h10.77707656l11.79806275 20.19283817-12.13839148 11.2308482z" fill="#ED1C24" p-id="5917"></path><path d="M512.68065747 733.10023375H473.42941023l20.07939525 18.94496615 1.24787204 0.1134429 35.62107408 1.81508658 13.95347806-13.72659225-7.60067503-7.14690338z" fill="#FBB03B" p-id="5918"></path><path d="M337.75168855 898.61344104c0.56721456 25.41121209 6.01247428 63.18770148 32.89844422 72.49002019 17.12987957 6.01247428 31.76401511 5.89903138 44.46962115-0.34032874 11.68461984-5.67214554 19.85250944-15.65512173 25.07088334-23.82301132l-102.43894871-48.32668013zM585.73789223 947.05356407c2.83607279 4.53771644 6.69313176 9.64264743 11.45773402 14.1803639 15.54167882 14.86102136 34.60008787 18.15086577 58.08277047 9.98297618 26.88596993-9.41576162 32.44467258-47.0788081 32.89844422-72.49002021L585.73789223 947.05356407z" fill="#00A0EA" p-id="5919"></path></svg>